<?xml version="1.0" encoding="utf-8"?>
<!-- Generator: Adobe Illustrator 22.1.0, SVG Export Plug-In . SVG Version: 6.00 Build 0)  -->
<svg version="1.1" id="Capa_1" xmlns="http://www.w3.org/2000/svg" xmlns:xlink="http://www.w3.org/1999/xlink" x="0px" y="0px"
	 viewBox="0 0 512 512" style="enable-background:new 0 0 512 512;" xml:space="preserve">
<style type="text/css">
	.st0{fill:#2F0743;}
</style>
<g>
	<g>
		<g>
			<polygon class="st0" points="113.2,194 105.7,207 141.2,227.5 141.2,244.7 156.2,244.7 156.2,218.8 			"/>
		</g>
	</g>
</g>
<g>
	<g>
		<g>
			<rect x="141.3" y="251.8" class="st0" width="15" height="15.9"/>
		</g>
	</g>
</g>
<g>
	<g>
		<g>
			<polygon class="st0" points="278.8,194 271.3,207 306.9,227.5 306.9,244.7 321.9,244.7 321.9,218.8 			"/>
		</g>
	</g>
</g>
<g>
	<g>
		<g>
			<rect x="306.9" y="251.8" class="st0" width="15" height="15.9"/>
		</g>
	</g>
</g>
<g>
	<g>
		<g>
			<path class="st0" d="M429.2,156V60.4L338.8,8.2L256,56L173.2,8.2L82.8,60.4V156L0,203.8v104.3L82.8,356v95.7l90.3,52.2L256,456
				l82.8,47.8l90.3-52.2V356l82.8-47.8V203.8L429.2,156z M263.5,69l75.3-43.5L414.2,69v87l-75.3,43.5L263.5,156V69z M97.8,69
				l75.3-43.5L248.5,69v87l-75.3,43.5L97.8,156C97.8,156,97.8,69,97.8,69z M15,299.5v-87L90.3,169l75.3,43.5v87L90.3,343L15,299.5z
				 M248.5,443l-75.3,43.5L97.8,443v-87l75.3-43.5l75.3,43.5V443z M180.7,299.5v-87L256,169l75.3,43.5v87L256,343L180.7,299.5z
				 M338.8,486.5L263.5,443v-87l75.3-43.5l75.3,43.5v87h0L338.8,486.5z M497,299.5L421.7,343l-75.3-43.5v-87l75.3-43.5l75.3,43.5
				V299.5z"/>
		</g>
	</g>
</g>
<g>
	<g>
		<g>
			<polygon class="st0" points="444.5,194 437,207 472.6,227.5 472.6,244.7 487.6,244.7 487.6,218.8 			"/>
		</g>
	</g>
</g>
<g>
	<g>
		<g>
			<rect x="472.6" y="251.8" class="st0" width="15" height="15.9"/>
		</g>
	</g>
</g>
<g>
	<g>
		<g>
			<polygon class="st0" points="196,50.5 188.5,63.5 224.1,84 224.1,101.2 239.1,101.2 239.1,75.4 			"/>
		</g>
	</g>
</g>
<g>
	<g>
		<g>
			<rect x="224.1" y="108.3" class="st0" width="15" height="15.9"/>
		</g>
	</g>
</g>
<g>
	<g>
		<g>
			<polygon class="st0" points="361.7,50.5 354.2,63.5 389.7,84 389.7,101.2 404.7,101.2 404.7,75.4 			"/>
		</g>
	</g>
</g>
<g>
	<g>
		<g>
			<rect x="389.8" y="108.3" class="st0" width="15" height="15.9"/>
		</g>
	</g>
</g>
<g>
	<g>
		<g>
			<polygon class="st0" points="196,337.5 188.5,350.5 224.1,371 224.1,388.2 239.1,388.2 239.1,362.3 			"/>
		</g>
	</g>
</g>
<g>
	<g>
		<g>
			<rect x="224.1" y="395.3" class="st0" width="15" height="15.9"/>
		</g>
	</g>
</g>
<g>
	<g>
		<g>
			<polygon class="st0" points="361.7,337.5 354.2,350.5 389.7,371 389.7,388.2 404.7,388.2 404.7,362.3 			"/>
		</g>
	</g>
</g>
<g>
	<g>
		<g>
			<rect x="389.8" y="395.3" class="st0" width="15" height="15.9"/>
		</g>
	</g>
</g>
</svg>
