<?xml version="1.0" encoding="utf-8"?>
<!-- Generator: Adobe Illustrator 22.1.0, SVG Export Plug-In . SVG Version: 6.00 Build 0)  -->
<svg version="1.1" id="Capa_1" xmlns="http://www.w3.org/2000/svg" xmlns:xlink="http://www.w3.org/1999/xlink" x="0px" y="0px"
	 viewBox="0 0 575 578" style="enable-background:new 0 0 575 578;" xml:space="preserve">
<style type="text/css">
	.st0{fill:#FFCE00;}
</style>
<g>
	<path class="st0" d="M548.1,496.2L347.5,295.6L548.1,95c15.8-15.8,15.8-41.5,0-57.3c-15.8-15.8-41.5-15.8-57.3,0L290.2,238.3
		L89.6,37.7c-15.8-15.8-41.5-15.8-57.3,0s-15.8,41.5,0,57.3l200.6,200.6L32.3,496.1c-15.8,15.8-15.8,41.5,0,57.3
		c15.8,15.8,41.5,15.8,57.3,0l200.5-200.5l200.7,200.7c15.8,15.8,41.5,15.8,57.3,0C563.8,537.8,563.9,512,548.1,496.2z"/>
</g>
</svg>
