<?xml version="1.0" encoding="utf-8"?>
<!-- Generator: Adobe Illustrator 22.1.0, SVG Export Plug-In . SVG Version: 6.00 Build 0)  -->
<svg version="1.1" id="Capa_1" xmlns="http://www.w3.org/2000/svg" xmlns:xlink="http://www.w3.org/1999/xlink" x="0px" y="0px"
	 viewBox="0 0 1069 1214" style="enable-background:new 0 0 1069 1214;" xml:space="preserve">
<style type="text/css">
	.st0{fill:#FFCE00;}
	.st1{fill:#FFFFFF;}
</style>
<g>
	<polygon class="st0" points="1024.4,886.9 1024.4,321.1 534.5,38.3 44.6,321.1 44.6,886.9 534.5,1169.7 	"/>
	<path class="st1" d="M854,553.5H570.3V269.8c0-22.3-18.2-40.5-40.5-40.5s-40.5,18.2-40.5,40.5v283.7H205.5
		c-22.3,0-40.5,18.2-40.5,40.5s18.2,40.5,40.5,40.5h283.7v283.7c0,22.3,18.2,40.5,40.5,40.5s40.5-18.2,40.5-40.5V634.6H854
		c22.3,0,40.5-18.2,40.5-40.5S876.3,553.5,854,553.5z"/>
</g>
</svg>
