<?xml version="1.0" encoding="utf-8"?>
<!-- Generator: Adobe Illustrator 22.1.0, SVG Export Plug-In . SVG Version: 6.00 Build 0)  -->
<svg version="1.1" id="Capa_1" xmlns="http://www.w3.org/2000/svg" xmlns:xlink="http://www.w3.org/1999/xlink" x="0px" y="0px"
	 viewBox="0 0 377 113" style="enable-background:new 0 0 377 113;" xml:space="preserve">
<style type="text/css">
	.st0{fill:#2F0743;}
</style>
<g>
	<path class="st0" d="M106.3,36.3c0-15.1-16.4-22.7-34.1-22.7c-24.9,0-49.6,13.6-49.6,31c0,9.2,12.4,15,18.6,15
		c1.6,0,2.5-0.6,2.5-2.2c0-1.5-5.7-3.7-5.7-10.9c0-14.1,12.5-26.2,34.1-26.2c10.5,0,20.8,5.7,20.8,16.4c0,11.6-11,17.3-11,17.3
		s-4-1.3-7.2-1.3c-3.2,0-6,1.9-6,5.3c0,3,2.8,5,6.2,5c2.6,0,6-1.4,6-1.4c3.3,0.4,7.2,5,7.2,12.6c0,9.8-7.7,16.1-16.4,16.1
		c-6.4,0-12.7-3-19.2-6.7c0.9-1.5,1.9-3,2.8-4.8c7.7-13.7,15.5-37.7,16.9-41c2.8-6.2,6.8-9.8,6.8-10.7s-0.4-1.6-2-1.6
		c-2.7,0-8.6,1.1-14.3,4.8c-4.8,3-13.3,33.4-19.7,45.1l-1.3,2.2c-5.7-2.9-11.6-5.3-17.6-5.3c-6.8,0-15,5.1-15,13.8
		c0,8.2,9.1,13.3,18.7,13.3c8.4,0,14.4-3,19.6-9c8.5,4.6,18.1,9,28.6,9c12.1,0,26.6-6.5,26.6-22.2c0-13.9-13-19.2-13.3-19.3
		C90.1,57.7,106.3,50,106.3,36.3z M25.5,92.2c-3.7,0-6.9-2.1-6.9-5.3s2.6-5.8,6.2-5.8c3.7,0,7.8,1.5,12.3,3.7
		C33.6,89.8,30.3,92.2,25.5,92.2z"/>
	<path class="st0" d="M269.2,42.9c5,0,9.5-5.8,9.5-12c0-3.9-2.6-6.4-6-6.4c-5.1,0-9.8,5.8-9.8,11.8
		C262.9,40.5,265.8,42.9,269.2,42.9z"/>
	<path class="st0" d="M365.5,84.3c-1.2,0-2.6,1.6-2.6,1.6c-1.6,1.5-5.3,5.8-12.4,5.8c-5.6,0-10.4-3.5-10.4-10.4c0,0,3.2,0.7,4.4,0.7
		c14.7,0,19-11.7,19-17.3c0-6.2-5.7-12.3-12.9-12.3c-10.2,0-25,11.8-25,29.7c0,0.1,0,0.3,0,0.4c-1.9,2.2-6.8,6.8-12.9,6.8
		c-3.3,0-5.3-1.3-6.9-2.7c8.8-7.7,15.9-18.8,15.9-24.8c0-5.4-5.7-9.5-9.3-9.5c-1.8,0-2.5,0.9-2.5,2.3c0,10.3-5.3,21-10.2,27.8h-0.1
		c-1.9,0-5.8,3.2-5.8,5.7V89c-0.6,0.4-1.2,0.6-1.6,0.6c-1.3,0-2-1.4-2-3.2c0-7.5,7.6-19,7.6-26.1c0-1.8-5.7-7.8-9.2-7.8
		c-1.4,0-2.6,0.9-3.2,2.2c-2.2,5.2-6.7,17-8.4,28.1c-2,2.8-6.7,8.7-11.6,8.7c-2.3,0-3.7-1.8-3.7-4.4c0-11.3,6.5-20.9,6.5-27.9
		c0-1.8-5.7-6.7-9.2-6.7c-1.4,0-2.6,0.9-3.2,2.2c-2.5,5.8-7.8,19.9-8.9,28.8c-2.2,2.9-6.6,8-11.1,8c-2.3,0-3.7-1.8-3.7-4.4
		c0-9.1,7.5-19.3,7.5-26.5c0-4-4-8.1-7.5-8.1c-5,0-9.2,2.6-9.7,2.9c0.8-0.9,15.7-18.6,15.7-28.3c0-4.2-5.3-10.3-10.5-10.3
		c-18.6,0-33.2,41.5-37,65.7c-2.1,2.7-8.3,9.7-17.2,9.7c-5.6,0-10.3-4-10.3-10.9c0,0,3.2,0.7,4.4,0.7c14.7,0,19-11.7,19-17.3
		c0-6.2-5.7-12.3-12.9-12.3c-10.2,0-25,11.8-25,29.7c0,0.2,0,0.4,0,0.5c-2.2,2.8-8.3,9.5-17.1,9.5c-5.6,0-10.3-4-10.3-10.9
		c0,0,3.2,0.7,4.4,0.7c14.7,0,19-11.7,19-17.3c0-6.2-5.7-12.3-12.9-12.3c-10.2,0-25,11.8-25,29.7c0,9.9,8.5,17.2,20.3,17.2
		c11.5,0,19-6,22.9-10.3c3,6.2,10,10.3,18.8,10.3c9.5,0,16.3-4.1,20.6-8c0,0.6,0,1.1,0,1.7c0,4.4,6.8,6.3,11.4,6.3
		c1.6,0,2.1-0.9,2.1-2.3c0-21.3,9.3-35.2,17.5-35.2c1.6,0,2.6,1.1,2.6,3.4c0,4.3-6.1,12.9-6.1,21.3c0,7.6,6,12.9,14.8,12.9
		c6.4,0,11.9-4.4,15.5-8.4c1.9,5.1,7.1,8.4,14,8.4c6,0,11.2-3.8,14.7-7.6c0.3,3.9,3.4,7.6,5.8,7.6c2.9,0,7.7-1.6,16-6.9
		c3.5,1.5,8.5,2.6,11.8,2.6c8.1,0,13.7-3.5,17-6.4c2.8,6.5,9.9,10.7,19,10.7c12.6,0,20.3-9.9,20.3-9.9s1.5-1.8,1.5-2.8
		C367.9,85.4,366.9,84.3,365.5,84.3z M353.8,58.5c1.3,0,2.1,0.8,2.1,2.3c0,4.9-6.7,15.8-15.2,15.8C340.7,70.5,347.4,58.5,353.8,58.5
		z M176.9,58.5c1.3,0,2.1,0.8,2.1,2.3c0,4.9-6.7,15.8-15.2,15.8C163.9,70.5,170.5,58.5,176.9,58.5z M135.2,58.5
		c1.3,0,2.1,0.8,2.1,2.3c0,4.9-6.7,15.8-15.2,15.8C122.1,70.5,128.8,58.5,135.2,58.5z M210.3,61.1c7.6-20.8,15.7-36.3,20-36.3
		c1.4,0,2.2,0.9,2.2,2.3C232.5,34.2,218.4,54.4,210.3,61.1z"/>
</g>
</svg>
