<?xml version="1.0" encoding="utf-8"?>
<!-- Generator: Adobe Illustrator 22.1.0, SVG Export Plug-In . SVG Version: 6.00 Build 0)  -->
<svg version="1.1" id="Capa_1" xmlns="http://www.w3.org/2000/svg" xmlns:xlink="http://www.w3.org/1999/xlink" x="0px" y="0px"
	 viewBox="0 0 1069 1214" style="enable-background:new 0 0 1069 1214;" xml:space="preserve">
<style type="text/css">
	.st0{clip-path:url(#SVGID_2_);}
	.st1{fill-rule:evenodd;clip-rule:evenodd;fill:#34333C;}
	.st2{fill-rule:evenodd;clip-rule:evenodd;fill:#F5B67E;}
	.st3{fill-rule:evenodd;clip-rule:evenodd;fill:#BED53B;}
	.st4{fill-rule:evenodd;clip-rule:evenodd;fill:#F6C085;}
	.st5{fill-rule:evenodd;clip-rule:evenodd;fill:#F8C997;}
	.st6{fill-rule:evenodd;clip-rule:evenodd;fill:#E5B17D;}
	.st7{fill-rule:evenodd;clip-rule:evenodd;fill:#D99E67;}
	.st8{fill:#FFCE00;}
</style>
<g>
	<defs>
		<polygon id="SVGID_1_" points="1024.4,886.9 1024.4,321.1 534.5,38.3 44.6,321.1 44.6,886.9 534.5,1169.7 		"/>
	</defs>
	<clipPath id="SVGID_2_">
		<use xlink:href="#SVGID_1_"  style="overflow:visible;"/>
	</clipPath>
	<g class="st0">
		<path class="st1" d="M391.3,1167.7c-6.5-4.9-152.8-73.8-152.8-73.8c-65.1,21.5-79.7,167.7-86.4,253.8h155.6L391.3,1167.7z"/>
		<path class="st1" d="M650.6,1167.7c6.6-4.9,152.8-73.8,152.8-73.8c65.1,21.5,79.7,167.7,86.4,253.8H734.2L650.6,1167.7z"/>
		<path class="st2" d="M520.9,933.6h-68.7V977c0,26.9-4.4,21.3-29.6,35.3c0,0-24.3,19.9-31.7,22.3c30.5,98.2,62.3,190.5,122,279.1
			h17.7h17.7c59.6-88.6,72-180.9,102.5-279.1c-7.4-2.4-31.7-22.3-31.7-22.3c-25.2-14-29.7-8.4-29.6-35.3v-43.3H520.9z"/>
		<path class="st3" d="M520.9,1169.7c-113.4-8.9-97-156.3-98.3-157c-36.6,16.7-170.1,69-185,81.9c12.1,26.5,30.5,135.8,46.4,253.2
			h236.9h236.9c15.9-117.4,34.3-226.6,46.4-253.2c-14.9-12.9-148.4-65.2-185-81.9C617.9,1013.4,634.3,1160.8,520.9,1169.7z"/>
		<path class="st4" d="M704.7,627.9c-9.8,55.8,23.3,102.4,74,112.4c50.7,10,99.7-20.3,109.5-76.1c9.8-55.8-23.3-109.2-74-119.3
			C763.5,534.9,714.5,572,704.7,627.9z"/>
		<path class="st4" d="M351,627.9c9.8,55.8-23.3,102.4-74,112.4c-50.7,10-99.7-20.3-109.5-76.1c-9.8-55.8,23.3-109.2,74-119.3
			C292.1,534.9,341.1,572,351,627.9z"/>
		<path class="st5" d="M780.8,295.3c-49.5-67.2-126.7-111.4-208.6-114.6c0,0-1.6-0.1-4.3-0.2l0.1-3.2c0,0-19.9,0.8-40.4,1.6
			c-20.5-0.8-40.4-1.6-40.4-1.6l0.1,3.2c-2.6,0.1-4.2,0.2-4.2,0.2c-82,3.3-159.1,47.4-208.6,114.6c-49.5,67.3-56.1,152.1-52.2,233.2
			c3,61.3,13.8,160.4,16.9,221.7c78.8,294.6,503.6,299.5,577,0c3-61.4,13.9-160.4,16.9-221.7C836.9,447.4,830.3,362.6,780.8,295.3z"
			/>
		<path class="st6" d="M474.8,770.3c-0.3-0.1-0.3-0.3-0.1-0.7c0-1.2,0.7-2.4,1.9-3.5c9.8-18.8,28.9-73.5,37.7-133.7
			c9.6,0.6-9.5,102.5-17.8,126.8c8.4-1.5,18.5-2.3,29.5-2.3c28.4,0,51.4,5.7,51.4,12.7c0,7-23,12.7-51.4,12.7
			C498.7,782.2,476.3,776.9,474.8,770.3z"/>
		<path class="st7" d="M520.9,1169.7c-113.4-9-97-156.3-98.3-157c-0.3,0.1-0.6,0.3-0.9,0.4c-7.2,3.3-17.9,7.8-30.6,13.1
			c-0.1,2.7-0.1,5.3-0.1,8c0,0.1,0,0.2,0,0.4c0.1,52.5,17.6,99.4,45.1,130.9c22.2,25.4,51,40.8,82.4,40.8c44,0,82.7-30,105.6-75.7
			c11.2-22.4,18.7-48.5,21-76.8c0.5-6.4,0.8-12.9,0.8-19.5c0-0.7,0-1.4,0-2.1c0-2.7-0.1-5.3-0.2-8c-10.4-4.4-19.3-8.2-25.5-11
			c-0.3-0.1-0.6-0.3-0.9-0.4C617.9,1013.4,634.3,1160.8,520.9,1169.7z"/>
		<path class="st1" d="M520.9,1169.7c-113.4-9-97-156.3-98.3-157c-0.3,0.1-0.6,0.3-0.9,0.4c-7.2,3.3-17.9,7.8-30.6,13.1
			c-0.1,2.7-0.1,5.3-0.1,8c0,0.1,0,0.2,0,0.4c0.1,52.5,17.6,99.4,45.1,130.9c22.2,25.4,51,40.8,82.4,40.8c44,0,82.7-30,105.6-75.7
			c11.2-22.4,18.7-48.5,21-76.8c0.5-6.4,0.8-12.9,0.8-19.5c0-0.7,0-1.4,0-2.1l-0.2-8c-10.4-4.4-19.3-8.2-25.5-11
			c-0.3-0.1-0.6-0.3-0.9-0.4C617.9,1013.4,634.3,1160.8,520.9,1169.7z"/>
	</g>
</g>
<g>
	<g>
		<path class="st8" d="M534.5,1185.9L30.6,895V313.1l503.9-291l503.9,291V895L534.5,1185.9z M58.6,878.8l475.9,274.8l475.9-274.8
			V329.2L534.5,54.4L58.6,329.2V878.8z"/>
	</g>
</g>
</svg>
